<svg width="53" height="40" viewBox="0 0 53 40" fill="none" xmlns="http://www.w3.org/2000/svg">
<path d="M21.4193 32.08V39H20.5093V33.84L18.2093 39H17.5693L15.2593 33.83V39H14.3493V32.08H15.3293L17.8893 37.8L20.4493 32.08H21.4193ZM25.6526 39.09C25.1392 39.09 24.6726 38.9733 24.2526 38.74C23.8392 38.5067 23.5126 38.1767 23.2726 37.75C23.0392 37.3167 22.9226 36.8167 22.9226 36.25C22.9226 35.69 23.0426 35.1967 23.2826 34.77C23.5292 34.3367 23.8626 34.0067 24.2826 33.78C24.7026 33.5467 25.1726 33.43 25.6926 33.43C26.2126 33.43 26.6826 33.5467 27.1026 33.78C27.5226 34.0067 27.8526 34.3333 28.0926 34.76C28.3392 35.1867 28.4626 35.6833 28.4626 36.25C28.4626 36.8167 28.3359 37.3167 28.0826 37.75C27.8359 38.1767 27.4992 38.5067 27.0726 38.74C26.6459 38.9733 26.1726 39.09 25.6526 39.09ZM25.6526 38.29C25.9792 38.29 26.2859 38.2133 26.5726 38.06C26.8592 37.9067 27.0892 37.6767 27.2626 37.37C27.4426 37.0633 27.5326 36.69 27.5326 36.25C27.5326 35.81 27.4459 35.4367 27.2726 35.13C27.0992 34.8233 26.8726 34.5967 26.5926 34.45C26.3126 34.2967 26.0092 34.22 25.6826 34.22C25.3492 34.22 25.0426 34.2967 24.7626 34.45C24.4892 34.5967 24.2692 34.8233 24.1026 35.13C23.9359 35.4367 23.8526 35.81 23.8526 36.25C23.8526 36.6967 23.9326 37.0733 24.0926 37.38C24.2592 37.6867 24.4792 37.9167 24.7526 38.07C25.0259 38.2167 25.3259 38.29 25.6526 38.29ZM30.8691 34.41C31.0291 34.0967 31.2557 33.8533 31.5491 33.68C31.8491 33.5067 32.2124 33.42 32.6391 33.42V34.36H32.3991C31.3791 34.36 30.8691 34.9133 30.8691 36.02V39H29.9591V33.52H30.8691V34.41ZM38.9895 36.05C38.9895 36.2233 38.9795 36.4067 38.9595 36.6H34.5795C34.6129 37.14 34.7962 37.5633 35.1295 37.87C35.4695 38.17 35.8795 38.32 36.3595 38.32C36.7529 38.32 37.0795 38.23 37.3395 38.05C37.6062 37.8633 37.7929 37.6167 37.8995 37.31H38.8795C38.7329 37.8367 38.4395 38.2667 37.9995 38.6C37.5595 38.9267 37.0129 39.09 36.3595 39.09C35.8395 39.09 35.3729 38.9733 34.9595 38.74C34.5529 38.5067 34.2329 38.1767 33.9995 37.75C33.7662 37.3167 33.6495 36.8167 33.6495 36.25C33.6495 35.6833 33.7629 35.1867 33.9895 34.76C34.2162 34.3333 34.5329 34.0067 34.9395 33.78C35.3529 33.5467 35.8262 33.43 36.3595 33.43C36.8795 33.43 37.3395 33.5433 37.7395 33.77C38.1395 33.9967 38.4462 34.31 38.6595 34.71C38.8795 35.1033 38.9895 35.55 38.9895 36.05ZM38.0495 35.86C38.0495 35.5133 37.9729 35.2167 37.8195 34.97C37.6662 34.7167 37.4562 34.5267 37.1895 34.4C36.9295 34.2667 36.6395 34.2 36.3195 34.2C35.8595 34.2 35.4662 34.3467 35.1395 34.64C34.8195 34.9333 34.6362 35.34 34.5895 35.86H38.0495Z" fill="#808191"/>
<g filter="url(#filter0_d_132_515)">
<path d="M27 4C28.3261 4 29.5979 4.52678 30.5355 5.46447C31.4732 6.40215 32 7.67392 32 9C32 10.3261 31.4732 11.5979 30.5355 12.5355C29.5979 13.4732 28.3261 14 27 14C25.6739 14 24.4021 13.4732 23.4645 12.5355C22.5268 11.5979 22 10.3261 22 9C22 7.67392 22.5268 6.40215 23.4645 5.46447C24.4021 4.52678 25.6739 4 27 4ZM27 16.5C32.525 16.5 37 18.7375 37 21.5V24H17V21.5C17 18.7375 21.475 16.5 27 16.5Z" fill="#808191"/>
</g>
<defs>
<filter id="filter0_d_132_515" x="11" y="0" width="32" height="32" filterUnits="userSpaceOnUse" color-interpolation-filters="sRGB">
<feFlood flood-opacity="0" result="BackgroundImageFix"/>
<feColorMatrix in="SourceAlpha" type="matrix" values="0 0 0 0 0 0 0 0 0 0 0 0 0 0 0 0 0 0 127 0" result="hardAlpha"/>
<feOffset dy="4"/>
<feGaussianBlur stdDeviation="2"/>
<feComposite in2="hardAlpha" operator="out"/>
<feColorMatrix type="matrix" values="0 0 0 0 0 0 0 0 0 0 0 0 0 0 0 0 0 0 0.25 0"/>
<feBlend mode="normal" in2="BackgroundImageFix" result="effect1_dropShadow_132_515"/>
<feBlend mode="normal" in="SourceGraphic" in2="effect1_dropShadow_132_515" result="shape"/>
</filter>
</defs>
</svg>
