<svg width="27" height="33" viewBox="0 0 27 33" fill="none" xmlns="http://www.w3.org/2000/svg">
<path d="M21.1338 10.0291V16.4291C21.1338 19.1905 18.8952 21.4291 16.1338 21.4291H7.46997" stroke="#FBBC05" stroke-opacity="0.5" stroke-width="2"/>
<line y1="-1" x2="14.1621" y2="-1" transform="matrix(0.661638 -0.749823 0.712257 0.701919 5.3125 13.0482)" stroke="#FBBC05" stroke-opacity="0.5" stroke-width="2"/>
<line y1="-1" x2="14.1621" y2="-1" transform="matrix(0.661638 0.749823 -0.712257 0.701919 13.9423 2.42908)" stroke="#FBBC05" stroke-opacity="0.5" stroke-width="2"/>
<path d="M13.9423 15.3491V15.3491C13.148 15.3491 12.504 15.9931 12.504 16.7874V21.0491" stroke="#FBBC05" stroke-opacity="0.5" stroke-width="2"/>
<path d="M13.9423 15.3491V15.3491C14.9352 15.3491 15.7402 16.1541 15.7402 17.147V21.0491" stroke="#FBBC05" stroke-opacity="0.5" stroke-width="2"/>
<rect x="12.504" y="11.5491" width="2.8766" height="1.52" rx="0.1" fill="#FBBC05" fill-opacity="0.5"/>
<path d="M21.0387 9.03186V15.4361C21.0387 18.1975 18.8001 20.4361 16.0387 20.4361H6.59332" stroke="#808080" stroke-width="2"/>
<line x1="3.58115" y1="11.3701" x2="13.4873" y2="0.747071" stroke="#808080" stroke-width="2"/>
<line x1="14.1673" y1="0.747079" x2="24.0734" y2="11.3701" stroke="#808080" stroke-width="2"/>
<path d="M13.4359 14.3539V14.3539C12.5961 14.3539 11.9153 15.0347 11.9153 15.8744V20.056" stroke="#808080" stroke-width="2"/>
<path d="M13.4359 14.3539V14.3539C14.4856 14.3539 15.3366 15.2049 15.3366 16.2546V20.056" stroke="#808080" stroke-width="2"/>
<rect x="11.9153" y="10.5525" width="3.04113" height="1.52057" rx="0.1" fill="#808080"/>
<path d="M5.23438 27.7816V28.4716H1.77148V27.7816H5.23438ZM1.90332 25.0306V31.4291H1.05518V25.0306H1.90332ZM5.97266 25.0306V31.4291H5.12891V25.0306H5.97266ZM7.1416 29.1044V29.0033C7.1416 28.6605 7.19141 28.3427 7.29102 28.0497C7.39062 27.7538 7.53418 27.4974 7.72168 27.2806C7.90918 27.0609 8.13623 26.891 8.40283 26.7709C8.66943 26.6478 8.96826 26.5863 9.29932 26.5863C9.6333 26.5863 9.93359 26.6478 10.2002 26.7709C10.4697 26.891 10.6982 27.0609 10.8857 27.2806C11.0762 27.4974 11.2212 27.7538 11.3208 28.0497C11.4204 28.3427 11.4702 28.6605 11.4702 29.0033V29.1044C11.4702 29.4471 11.4204 29.765 11.3208 30.058C11.2212 30.351 11.0762 30.6073 10.8857 30.827C10.6982 31.0438 10.4712 31.2137 10.2046 31.3368C9.94092 31.4569 9.64209 31.517 9.30811 31.517C8.97412 31.517 8.67383 31.4569 8.40723 31.3368C8.14062 31.2137 7.91211 31.0438 7.72168 30.827C7.53418 30.6073 7.39062 30.351 7.29102 30.058C7.19141 29.765 7.1416 29.4471 7.1416 29.1044ZM7.95459 29.0033V29.1044C7.95459 29.3417 7.98242 29.5658 8.03809 29.7767C8.09375 29.9847 8.17725 30.1693 8.28857 30.3304C8.40283 30.4916 8.54492 30.619 8.71484 30.7128C8.88477 30.8036 9.08252 30.849 9.30811 30.849C9.53076 30.849 9.72559 30.8036 9.89258 30.7128C10.0625 30.619 10.2031 30.4916 10.3145 30.3304C10.4258 30.1693 10.5093 29.9847 10.5649 29.7767C10.6235 29.5658 10.6528 29.3417 10.6528 29.1044V29.0033C10.6528 28.7689 10.6235 28.5477 10.5649 28.3397C10.5093 28.1288 10.4243 27.9427 10.3101 27.7816C10.1987 27.6176 10.0581 27.4886 9.88818 27.3949C9.72119 27.3011 9.5249 27.2543 9.29932 27.2543C9.07666 27.2543 8.88037 27.3011 8.71045 27.3949C8.54346 27.4886 8.40283 27.6176 8.28857 27.7816C8.17725 27.9427 8.09375 28.1288 8.03809 28.3397C7.98242 28.5477 7.95459 28.7689 7.95459 29.0033ZM13.2983 27.619V31.4291H12.481V26.6742H13.2544L13.2983 27.619ZM13.1313 28.8715L12.7534 28.8583C12.7563 28.5331 12.7988 28.2328 12.8809 27.9574C12.9629 27.6791 13.0845 27.4374 13.2456 27.2323C13.4067 27.0272 13.6074 26.869 13.8477 26.7577C14.0879 26.6434 14.3662 26.5863 14.6826 26.5863C14.9053 26.5863 15.1104 26.6185 15.2979 26.683C15.4854 26.7445 15.6479 26.8427 15.7856 26.9774C15.9233 27.1122 16.0303 27.285 16.1064 27.496C16.1826 27.7069 16.2207 27.9618 16.2207 28.2606V31.4291H15.4077V28.3002C15.4077 28.0511 15.3652 27.8519 15.2803 27.7025C15.1982 27.5531 15.0811 27.4447 14.9287 27.3773C14.7764 27.307 14.5977 27.2719 14.3926 27.2719C14.1523 27.2719 13.9517 27.3143 13.7905 27.3993C13.6294 27.4843 13.5005 27.6014 13.4038 27.7509C13.3071 27.9003 13.2368 28.0717 13.1929 28.265C13.1519 28.4554 13.1313 28.6576 13.1313 28.8715ZM16.2119 28.4232L15.667 28.5902C15.6699 28.3295 15.7124 28.079 15.7944 27.8387C15.8794 27.5985 16.001 27.3846 16.1592 27.1971C16.3203 27.0096 16.5181 26.8617 16.7524 26.7533C16.9868 26.642 17.2549 26.5863 17.5566 26.5863C17.8115 26.5863 18.0371 26.62 18.2334 26.6874C18.4326 26.7548 18.5996 26.8588 18.7344 26.9994C18.8721 27.1371 18.9761 27.3143 19.0464 27.5311C19.1167 27.7479 19.1519 28.0057 19.1519 28.3046V31.4291H18.3345V28.2958C18.3345 28.0292 18.292 27.8226 18.207 27.6761C18.125 27.5267 18.0078 27.4227 17.8555 27.3641C17.7061 27.3026 17.5273 27.2719 17.3193 27.2719C17.1406 27.2719 16.9824 27.3026 16.8447 27.3641C16.707 27.4257 16.5913 27.5106 16.4976 27.619C16.4038 27.7245 16.332 27.8461 16.2822 27.9838C16.2354 28.1215 16.2119 28.2679 16.2119 28.4232ZM22.3555 31.517C22.0244 31.517 21.7241 31.4613 21.4546 31.35C21.188 31.2357 20.958 31.076 20.7646 30.871C20.5742 30.6659 20.4277 30.4227 20.3252 30.1415C20.2227 29.8602 20.1714 29.5526 20.1714 29.2186V29.0341C20.1714 28.6473 20.2285 28.3031 20.3428 28.0013C20.457 27.6967 20.6123 27.4388 20.8086 27.2279C21.0049 27.017 21.2275 26.8573 21.4766 26.7489C21.7256 26.6405 21.9834 26.5863 22.25 26.5863C22.5898 26.5863 22.8828 26.6449 23.1289 26.7621C23.3779 26.8793 23.5815 27.0433 23.7397 27.2543C23.8979 27.4623 24.0151 27.7084 24.0913 27.9926C24.1675 28.2738 24.2056 28.5814 24.2056 28.9154V29.2802H20.6548V28.6166H23.3926V28.5551C23.3809 28.3441 23.3369 28.139 23.2607 27.9398C23.1875 27.7406 23.0703 27.5765 22.9092 27.4476C22.748 27.3187 22.5283 27.2543 22.25 27.2543C22.0654 27.2543 21.8955 27.2938 21.7402 27.3729C21.585 27.4491 21.4517 27.5634 21.3403 27.7157C21.229 27.868 21.1426 28.0541 21.0811 28.2738C21.0195 28.4935 20.9888 28.7469 20.9888 29.0341V29.2186C20.9888 29.4442 21.0195 29.6566 21.0811 29.8558C21.1455 30.0521 21.2378 30.225 21.3579 30.3744C21.481 30.5238 21.6289 30.641 21.8018 30.726C21.9775 30.8109 22.1768 30.8534 22.3994 30.8534C22.6865 30.8534 22.9297 30.7948 23.1289 30.6776C23.3281 30.5604 23.5024 30.4037 23.6519 30.2074L24.144 30.5985C24.0415 30.7538 23.9111 30.9017 23.7529 31.0424C23.5947 31.183 23.3999 31.2972 23.1685 31.3851C22.9399 31.473 22.6689 31.517 22.3555 31.517Z" fill="#808080"/>
</svg>
