<svg width="26" height="33" viewBox="0 0 26 33" fill="none" xmlns="http://www.w3.org/2000/svg">
<rect x="5.3125" y="1.42908" width="15" height="17" rx="2" stroke="#50555C" stroke-opacity="0.9" stroke-width="2"/>
<line x1="4.3125" y1="5.13562" x2="11.3125" y2="5.13562" stroke="#50555C" stroke-opacity="0.9" stroke-width="0.5"/>
<line x1="14.3125" y1="6.78772" x2="21.3125" y2="6.78772" stroke="#50555C" stroke-opacity="0.9" stroke-width="0.5"/>
<line x1="4.3125" y1="14.1791" x2="11.3125" y2="14.1791" stroke="#50555C" stroke-opacity="0.9" stroke-width="0.5"/>
<line x1="4.3125" y1="10.9182" x2="11.3125" y2="10.9182" stroke="#50555C" stroke-opacity="0.9" stroke-width="0.5"/>
<path d="M5.98145 27.0277V27.432C5.98145 27.9125 5.92139 28.3431 5.80127 28.724C5.68115 29.1049 5.5083 29.4286 5.28271 29.6952C5.05713 29.9618 4.78613 30.1654 4.46973 30.306C4.15625 30.4467 3.80469 30.517 3.41504 30.517C3.03711 30.517 2.68994 30.4467 2.37354 30.306C2.06006 30.1654 1.7876 29.9618 1.55615 29.6952C1.32764 29.4286 1.15039 29.1049 1.02441 28.724C0.898438 28.3431 0.835449 27.9125 0.835449 27.432V27.0277C0.835449 26.5472 0.896973 26.118 1.02002 25.7401C1.146 25.3593 1.32324 25.0355 1.55176 24.7689C1.78027 24.4994 2.05127 24.2943 2.36475 24.1537C2.68115 24.0131 3.02832 23.9427 3.40625 23.9427C3.7959 23.9427 4.14746 24.0131 4.46094 24.1537C4.77734 24.2943 5.04834 24.4994 5.27393 24.7689C5.50244 25.0355 5.67676 25.3593 5.79688 25.7401C5.91992 26.118 5.98145 26.5472 5.98145 27.0277ZM5.14209 27.432V27.0189C5.14209 26.6381 5.10254 26.3011 5.02344 26.0082C4.94727 25.7152 4.83447 25.4691 4.68506 25.2699C4.53564 25.0707 4.35254 24.9198 4.13574 24.8173C3.92188 24.7147 3.67871 24.6635 3.40625 24.6635C3.14258 24.6635 2.90381 24.7147 2.68994 24.8173C2.479 24.9198 2.29736 25.0707 2.14502 25.2699C1.99561 25.4691 1.87988 25.7152 1.79785 26.0082C1.71582 26.3011 1.6748 26.6381 1.6748 27.0189V27.432C1.6748 27.8158 1.71582 28.1556 1.79785 28.4515C1.87988 28.7445 1.99707 28.9921 2.14941 29.1942C2.30469 29.3934 2.48779 29.5443 2.69873 29.6469C2.9126 29.7494 3.15137 29.8007 3.41504 29.8007C3.69043 29.8007 3.93506 29.7494 4.14893 29.6469C4.36279 29.5443 4.54297 29.3934 4.68945 29.1942C4.83887 28.9921 4.95166 28.7445 5.02783 28.4515C5.104 28.1556 5.14209 27.8158 5.14209 27.432ZM8.34131 30.4291H7.52832V25.1732C7.52832 24.8304 7.58984 24.5419 7.71289 24.3075C7.83887 24.0702 8.01904 23.8915 8.25342 23.7714C8.48779 23.6483 8.76611 23.5868 9.08838 23.5868C9.18213 23.5868 9.27588 23.5927 9.36963 23.6044C9.46631 23.6161 9.56006 23.6337 9.65088 23.6571L9.60693 24.3207C9.54541 24.306 9.4751 24.2958 9.396 24.2899C9.31982 24.2841 9.24365 24.2811 9.16748 24.2811C8.99463 24.2811 8.84521 24.3163 8.71924 24.3866C8.59619 24.454 8.50244 24.5536 8.43799 24.6854C8.37354 24.8173 8.34131 24.9799 8.34131 25.1732V30.4291ZM9.35205 25.6742V26.2982H6.77686V25.6742H9.35205ZM11.4702 30.4291H10.6572V25.1732C10.6572 24.8304 10.7188 24.5419 10.8418 24.3075C10.9678 24.0702 11.1479 23.8915 11.3823 23.7714C11.6167 23.6483 11.895 23.5868 12.2173 23.5868C12.311 23.5868 12.4048 23.5927 12.4985 23.6044C12.5952 23.6161 12.689 23.6337 12.7798 23.6571L12.7358 24.3207C12.6743 24.306 12.604 24.2958 12.5249 24.2899C12.4487 24.2841 12.3726 24.2811 12.2964 24.2811C12.1235 24.2811 11.9741 24.3163 11.8481 24.3866C11.7251 24.454 11.6313 24.5536 11.5669 24.6854C11.5024 24.8173 11.4702 24.9799 11.4702 25.1732V30.4291ZM12.481 25.6742V26.2982H9.90576V25.6742H12.481ZM15.2539 30.517C14.9229 30.517 14.6226 30.4613 14.353 30.35C14.0864 30.2357 13.8564 30.076 13.6631 29.871C13.4727 29.6659 13.3262 29.4227 13.2236 29.1415C13.1211 28.8602 13.0698 28.5526 13.0698 28.2186V28.0341C13.0698 27.6473 13.127 27.3031 13.2412 27.0013C13.3555 26.6967 13.5107 26.4388 13.707 26.2279C13.9033 26.017 14.126 25.8573 14.375 25.7489C14.624 25.6405 14.8818 25.5863 15.1484 25.5863C15.4883 25.5863 15.7812 25.6449 16.0273 25.7621C16.2764 25.8793 16.48 26.0433 16.6382 26.2543C16.7964 26.4623 16.9136 26.7084 16.9897 26.9926C17.0659 27.2738 17.104 27.5814 17.104 27.9154V28.2802H13.5532V27.6166H16.291V27.5551C16.2793 27.3441 16.2354 27.139 16.1592 26.9398C16.0859 26.7406 15.9688 26.5765 15.8076 26.4476C15.6465 26.3187 15.4268 26.2543 15.1484 26.2543C14.9639 26.2543 14.7939 26.2938 14.6387 26.3729C14.4834 26.4491 14.3501 26.5634 14.2388 26.7157C14.1274 26.868 14.041 27.0541 13.9795 27.2738C13.918 27.4935 13.8872 27.7469 13.8872 28.0341V28.2186C13.8872 28.4442 13.918 28.6566 13.9795 28.8558C14.0439 29.0521 14.1362 29.225 14.2563 29.3744C14.3794 29.5238 14.5273 29.641 14.7002 29.726C14.876 29.8109 15.0752 29.8534 15.2979 29.8534C15.585 29.8534 15.8281 29.7948 16.0273 29.6776C16.2266 29.5604 16.4009 29.4037 16.5503 29.2074L17.0425 29.5985C16.9399 29.7538 16.8096 29.9017 16.6514 30.0424C16.4932 30.183 16.2983 30.2972 16.0669 30.3851C15.8384 30.473 15.5674 30.517 15.2539 30.517ZM18.8662 26.4213V30.4291H18.0532V25.6742H18.8442L18.8662 26.4213ZM20.3516 25.6478L20.3472 26.4037C20.2798 26.389 20.2153 26.3802 20.1538 26.3773C20.0952 26.3715 20.0278 26.3685 19.9517 26.3685C19.7642 26.3685 19.5986 26.3978 19.4551 26.4564C19.3115 26.515 19.1899 26.597 19.0903 26.7025C18.9907 26.808 18.9116 26.934 18.853 27.0804C18.7974 27.224 18.7607 27.3822 18.7432 27.5551L18.5146 27.6869C18.5146 27.3998 18.5425 27.1302 18.5981 26.8783C18.6567 26.6263 18.7461 26.4037 18.8662 26.2103C18.9863 26.014 19.1387 25.8617 19.3232 25.7533C19.5107 25.642 19.7334 25.5863 19.9912 25.5863C20.0498 25.5863 20.1172 25.5936 20.1934 25.6083C20.2695 25.62 20.3223 25.6332 20.3516 25.6478ZM23.8716 29.1678C23.8716 29.0507 23.8452 28.9423 23.7925 28.8427C23.7427 28.7401 23.6387 28.6478 23.4805 28.5658C23.3252 28.4808 23.0908 28.4076 22.7773 28.3461C22.5137 28.2904 22.2749 28.2245 22.061 28.1483C21.8501 28.0721 21.6699 27.9799 21.5205 27.8715C21.374 27.7631 21.2612 27.6356 21.1821 27.4891C21.103 27.3427 21.0635 27.1713 21.0635 26.975C21.0635 26.7875 21.1045 26.6102 21.1865 26.4432C21.2715 26.2762 21.3901 26.1283 21.5425 25.9994C21.6978 25.8705 21.8838 25.7694 22.1006 25.6962C22.3174 25.6229 22.5591 25.5863 22.8257 25.5863C23.2065 25.5863 23.5317 25.6537 23.8013 25.7885C24.0708 25.9232 24.2773 26.1034 24.4209 26.329C24.5645 26.5516 24.6362 26.7992 24.6362 27.0717H23.8232C23.8232 26.9398 23.7837 26.8124 23.7046 26.6893C23.6284 26.5634 23.5156 26.4594 23.3662 26.3773C23.2197 26.2953 23.0396 26.2543 22.8257 26.2543C22.6001 26.2543 22.417 26.2894 22.2764 26.3597C22.1387 26.4271 22.0376 26.5135 21.9731 26.619C21.9116 26.7245 21.8809 26.8358 21.8809 26.953C21.8809 27.0409 21.8955 27.12 21.9248 27.1903C21.957 27.2577 22.0127 27.3207 22.0918 27.3793C22.1709 27.4349 22.2822 27.4877 22.4258 27.5375C22.5693 27.5873 22.7524 27.6371 22.9751 27.6869C23.3647 27.7748 23.6855 27.8802 23.9375 28.0033C24.1895 28.1263 24.377 28.2772 24.5 28.4559C24.623 28.6346 24.6846 28.8514 24.6846 29.1063C24.6846 29.3143 24.6406 29.5048 24.5527 29.6776C24.4678 29.8505 24.3433 29.9999 24.1792 30.1259C24.0181 30.2489 23.8247 30.3456 23.5991 30.4159C23.3765 30.4833 23.126 30.517 22.8477 30.517C22.4287 30.517 22.0742 30.4423 21.7842 30.2928C21.4941 30.1434 21.2744 29.9501 21.125 29.7128C20.9756 29.4755 20.9009 29.225 20.9009 28.9613H21.7183C21.73 29.184 21.7944 29.3612 21.9116 29.493C22.0288 29.6219 22.1724 29.7142 22.3423 29.7699C22.5122 29.8226 22.6807 29.849 22.8477 29.849C23.0703 29.849 23.2563 29.8197 23.4058 29.7611C23.5581 29.7025 23.6738 29.6219 23.7529 29.5194C23.832 29.4169 23.8716 29.2997 23.8716 29.1678Z" fill="#50555C" fill-opacity="0.9"/>
</svg>
